<svg width="256" height="256" viewBox="0 0 256 256" fill="none" xmlns="http://www.w3.org/2000/svg">
<path d="M222.937 95.799C221.835 111.973 217.993 127.645 211.755 142.377C209.838 147.794 207.281 152.957 204.159 157.795C189.069 184.501 165.674 207.216 136.27 222.892L136.223 224.271C136.538 234.064 136.542 244.609 136.274 255.999C207.114 225.547 256 160.907 256 86.0783C256 85.0137 255.991 83.9504 255.97 82.8914C243.89 87.35 232.903 91.5863 222.937 95.799ZM0.02961 82.9219C0.00935052 83.9713 0 85.0234 0 86.0783C0 160.878 48.8487 225.497 119.643 255.963C119.375 244.6 119.38 234.079 119.694 224.304L119.646 222.846C90.2995 207.18 66.9466 184.499 51.8689 157.838C48.7209 152.968 46.1448 147.767 44.2202 142.309C38.0021 127.609 34.173 111.971 33.0681 95.8351C23.1005 91.6197 12.1105 87.382 0.02961 82.9219ZM84.1297 30.5033C54.4933 37.3442 27.9113 50.9551 6.58276 69.3764C18.5748 73.8058 29.5632 78.0449 39.6197 82.2854C45.2721 78.259 51.2346 74.6439 57.4527 71.4598C65.3819 57.4499 75.0286 43.1149 84.1297 30.5033ZM198.546 71.4584C204.753 74.637 210.705 78.2451 216.349 82.2632C226.407 78.0241 237.4 73.785 249.394 69.3555C228.068 50.9454 201.496 37.3428 171.869 30.5033C180.968 43.1149 190.615 57.4486 198.546 71.4584ZM127.999 54.7328C135.935 54.7328 143.781 55.3193 151.474 56.4618C143.342 44.8884 135 33.9835 128.325 25.5429L127.999 25.5415L127.674 25.5429C120.999 33.9849 112.657 44.8884 104.525 56.4618C112.216 55.3193 120.064 54.7328 127.999 54.7328Z" fill="#002C8F"/>
<path fill-rule="evenodd" clip-rule="evenodd" d="M127.996 182.305C167.328 182.305 199.211 153.87 199.211 118.793C199.211 83.7155 127.996 0 127.996 0C127.996 0 56.7812 83.7155 56.7812 118.793C56.7812 153.869 88.665 182.305 127.996 182.305Z" fill="#00D1F9"/>
</svg>
