<svg xmlns="http://www.w3.org/2000/svg" width="150" height="150" fill="none" viewBox="0 0 150 150"><circle cx="75" cy="75" r="75" fill="#fff"/><path fill="#000b22" d="m18.613 61.502 1.596.3-1.097 6.483-.998-.2-2.394-3.391c-.399-.499-.798-.998-1.097-1.297-.3-.399-.698-.598-1.097-.598-.2 0-.499 0-.698.1-.2.1-.4.199-.599.398-.2.2-.3.5-.3.798v.798c.1.3.2.5.4.599.2.1.499.299.798.299l-.3 1.696c-.598-.1-1.097-.3-1.496-.698-.399-.4-.698-.799-.897-1.397-.2-.499-.2-1.097-.1-1.795.1-.699.3-1.197.698-1.696.3-.4.698-.798 1.197-.898s.898-.2 1.397-.2c.399.1.798.2 1.197.4.299.2.598.498.997.897.3.4.599.798.997 1.297l1.397 1.796zm2.894-3.89c-.2.599-.5 1.197-.898 1.596a4.2 4.2 0 0 1-1.397.898c-.498.2-.997.2-1.596 0l.5-1.696c.299 0 .498 0 .797-.1.2-.1.4-.2.599-.399.2-.2.299-.498.399-.798.1-.398.2-.797.1-.997-.1-.3-.2-.499-.4-.698-.2-.2-.399-.3-.698-.4-.2-.099-.498-.099-.798 0-.299.1-.498.2-.698.4s-.399.498-.499.898c-.1.398-.1.698-.1 1.097.1.299.2.598.5.897l-.899 1.297-4.688-2.394 1.596-5.187 1.497.5-1.098 3.79 1.896.897c-.1-.299-.1-.598-.1-.898 0-.299.1-.598.2-.897.199-.699.498-1.297.997-1.596.399-.4.897-.599 1.396-.698.499-.1.998-.1 1.496.1.4.1.699.299.998.598s.598.598.798.997c.2.4.3.798.399 1.297q0 .599-.3 1.496m1.496-12.468 3.092 1.696-.898 1.695-3.092-1.695-6.683.1.997-1.896h4.589l-2.394-3.89.997-1.696zm7.58-7.981 1.396.998-3.79 4.987-7.381-5.586 3.69-4.887 1.397.997-2.494 3.392 1.596 1.197 2.294-2.993 1.397.998-2.294 2.992 1.795 1.297zm6.682-4.189-6.783-3.391 3.192 6.882-1.396 1.397-3.99-9.077 1.496-1.496 8.977 4.289zm-5.785.599 2.992-2.893 1.496.798-3.69 3.59zm9.675-3.69-1.596 1.097-5.286-7.68 2.992-2.096q1.496-1.047 2.693-.897c.798.1 1.496.498 2.095 1.297.399.498.498 1.097.498 1.695s-.199 1.197-.698 1.696l3.99 1.596-1.995 1.296-3.59-1.496-.998.699zm-4.389-6.285 1.596 2.295 1.297-.898c.498-.3.798-.698.898-1.097.1-.4.1-.699-.2-1.098s-.598-.598-.997-.598c-.4 0-.798.2-1.297.499zm15.065-3.191c.3.498.4 1.097.3 1.596-.1.498-.3 1.097-.698 1.496a4 4 0 0 1-1.596 1.197c-.698.3-1.397.498-1.995.498s-1.197-.1-1.696-.398c-.498-.3-.898-.699-1.297-1.297l1.796-.898c.3.499.599.698.997.898.4.1.898.1 1.497-.2.299-.1.498-.299.698-.498.2-.2.3-.4.399-.599.1-.2 0-.499-.1-.698-.1-.3-.3-.4-.598-.499-.3-.1-.599 0-.998.1l-1.496.399c-.3.1-.698.2-.998.2-.299 0-.598 0-.897-.1s-.599-.2-.798-.4c-.2-.199-.499-.498-.599-.797-.2-.499-.299-.998-.2-1.497.1-.498.3-.997.7-1.496.398-.399.797-.798 1.495-1.097.599-.3 1.197-.499 1.895-.499.599 0 1.197.1 1.696.4.499.299.898.698 1.197 1.296l-1.795.898c-.2-.3-.4-.499-.599-.698-.2-.2-.499-.2-.798-.2s-.598.1-.898.2c-.299.1-.498.299-.698.498-.2.2-.2.4-.299.599 0 .2 0 .399.1.598.1.2.2.3.399.4.2.099.399.099.598.099.2 0 .4 0 .599-.1l1.596-.399a5.1 5.1 0 0 1 2.094-.1c.3.1.699.5.998 1.098m8.977.398c-.699.2-1.297.2-1.895.1s-1.197-.3-1.696-.599-.998-.698-1.297-1.296c-.399-.499-.598-1.098-.798-1.796s-.2-1.296-.1-1.995c.1-.598.3-1.197.599-1.695.3-.5.698-.998 1.197-1.297.499-.4 1.097-.599 1.696-.798.698-.2 1.296-.2 1.895-.1.598.1 1.197.3 1.695.599.5.299.998.698 1.397 1.296.399.5.598 1.098.798 1.796s.2 1.297.1 1.995c-.1.598-.3 1.197-.599 1.695-.3.5-.698.998-1.197 1.397-.499.3-1.097.598-1.795.698m-.4-1.696c.4-.1.799-.299 1.098-.498.3-.2.499-.499.698-.898.2-.399.3-.698.3-1.097 0-.4 0-.798-.1-1.197-.1-.4-.3-.798-.5-1.097-.199-.3-.498-.599-.797-.798s-.599-.4-.998-.4q-.597-.15-1.197 0c-.398.1-.797.3-1.097.5-.299.199-.498.498-.698.797s-.3.699-.3 1.098 0 .798.1 1.196c.1.4.3.799.5 1.098.199.299.498.598.797.798s.599.399.998.399c.399.2.798.2 1.197.1m8.076.3-1.995.199-.698-9.277 5.985-.498.1 1.695-3.99.3.2 2.294 3.39-.3.1 1.696-3.391.3zm14.265-1.298-.199 1.696-6.184-.599.998-9.276 6.184.599-.2 1.695-4.19-.399-.199 1.995 3.79.4-.199 1.595-3.79-.399-.2 2.195zm2.695 2.295-2.195-.599 3.99-3.89-1.396-5.087 2.194.599.898 3.69 2.693-2.693 2.094.598-3.79 3.79 1.596 5.287-2.294-.598-1.097-3.89zm11.469.598-1.297-.598-1.197 2.792-1.795-.798 3.69-8.578 3.192 1.397c.699.299 1.297.698 1.696 1.097s.698.898.798 1.496q.15.748-.299 1.796c-.299.598-.599 1.097-1.097 1.396-.499.3-.998.499-1.596.499-.698-.1-1.397-.2-2.095-.499m1.895-4.29-1.296-.598-1.197 2.793 1.296.599c.5.2.998.299 1.297.1.3-.2.698-.4.898-.798q.298-.6 0-1.197c-.2-.4-.499-.699-.998-.898m7.485 10.972-.898 1.496-5.286-3.291 4.887-7.88 5.287 3.291-.898 1.497-3.591-2.195-.997 1.696 3.192 1.995-.898 1.396-3.192-1.995-1.197 1.895zm1.594 3.492-1.497-1.297 5.985-7.082 2.793 2.394c.898.798 1.397 1.596 1.596 2.394s-.1 1.596-.698 2.294q-.599.747-1.496.898c-.599.1-1.197.1-1.896-.2l-.498 4.29-1.796-1.497.499-3.89-.898-.798zm4.987-5.886-1.795 2.095 1.196.998c.499.399.898.598 1.297.598s.698-.1.998-.499c.299-.399.399-.698.299-1.097s-.399-.798-.798-1.097zm1.395 11.87-1.396-1.397 6.783-6.384 1.396 1.397zm6.386 5.186-1.397.998-3.79-4.988 7.381-5.685 3.691 4.887-1.397.998-2.593-3.392-1.596 1.197 2.294 2.993-1.396.997-2.295-2.992-1.795 1.396zm2.191 7.382 3.69-6.882-5.685 3.092-.898-1.596 8.179-4.389.998 1.895-3.491 6.484 5.386-2.893.898 1.596-8.18 4.389zm2.696 7.182c-.199-.599-.299-1.197-.199-1.895.1-.599.199-1.197.499-1.696a5.2 5.2 0 0 1 1.197-1.397 5.5 5.5 0 0 1 1.695-.897c.599-.2 1.297-.3 1.895-.3s1.197.2 1.796.5c.598.299.997.598 1.396 1.096.399.5.699.998.898 1.596.299.798.299 1.497.199 2.295-.099.698-.398 1.396-.797 1.995-.399.598-.998 1.097-1.796 1.396l-.598-1.995c.399-.2.698-.499.997-.798s.399-.698.499-1.097c.1-.4 0-.798-.1-1.197-.1-.4-.299-.698-.598-.998q-.3-.448-.898-.598c-.299-.1-.698-.2-1.097-.2s-.798.1-1.197.2-.798.3-1.098.598c-.299.2-.598.5-.798.798-.199.3-.299.599-.299.998s0 .698.1 1.097.399.798.698 1.097c.299.3.599.499.998.599s.798.1 1.296.1l.699 1.994c-.798.1-1.596.1-2.295-.1-.698-.199-1.296-.598-1.895-1.096a7.2 7.2 0 0 1-1.197-2.095m4.386 11.471-1.695.299-.998-6.184 9.177-1.397.997 6.085-1.695.299-.698-4.19-1.896.3.599 3.79-1.696.3-.598-3.791-2.195.3zm1.298 7.681v-3.99h1.595v3.99zm-2.493 10.273-1.596-.3 1.097-6.483.997.2 2.394 3.391c.399.499.798.997 1.097 1.297.3.299.699.598 1.098.598.199 0 .498 0 .698-.1s.399-.199.598-.398c.2-.2.3-.5.3-.798.099-.3 0-.599 0-.898s-.2-.499-.399-.599c-.2-.1-.499-.299-.798-.299l.299-1.696c.598.1 1.097.3 1.496.699s.698.798.898 1.396c.199.499.199 1.097.1 1.795-.1.699-.3 1.197-.699 1.696-.299.4-.698.798-1.197.898-.399.2-.897.2-1.396.2-.399-.1-.798-.2-1.197-.4-.299-.2-.599-.498-.998-.897-.299-.4-.598-.798-.997-1.297l-1.396-1.795zm-2.894 3.791c.2-.599.499-1.197.898-1.596a4.2 4.2 0 0 1 1.396-.898c.499-.2.998-.2 1.596 0l-.498 1.696c-.3 0-.499 0-.798.1-.2.1-.399.199-.599.398-.199.2-.299.5-.399.798-.1.4-.199.699-.1.998.1.3.2.498.399.698.2.2.399.3.699.399.199.1.498.1.798 0 .299-.1.498-.2.698-.399.199-.2.399-.499.499-.898s.099-.698.099-1.097c-.099-.3-.199-.598-.498-.898l.897-1.296 4.688 2.394-1.596 5.186-1.496-.498 1.197-3.89-1.895-.898c.1.3.1.598.1.898 0 .299-.1.598-.2.897-.199.698-.498 1.297-.997 1.596-.399.4-.898.599-1.397.699-.498.1-.997.1-1.496-.1-.399-.1-.698-.3-.997-.599s-.599-.598-.798-.997c-.2-.4-.3-.798-.399-1.297-.1-.3 0-.798.199-1.396m-1.496 12.568-3.092-1.696.898-1.696 3.092 1.696 6.683-.1-.998 1.895h-4.588l2.394 3.89-.998 1.696zm-7.58 7.88-1.397-.998 3.791-4.987 7.381 5.586-3.691 4.887-1.396-.997 2.493-3.392-1.595-1.197-2.295 2.993-1.396-.998 2.294-2.992-1.795-1.397zm-6.681 4.289 6.783 3.391-3.192-6.883 1.396-1.396 3.99 9.077-1.496 1.496-8.977-4.289zm5.785-.599-2.992 2.893-1.496-.798 3.69-3.591zm-9.673 3.691 1.596-1.097 5.286 7.68-2.992 2.095q-1.496 1.047-2.693.898c-.798-.1-1.496-.499-2.095-1.297-.399-.499-.499-1.097-.499-1.696 0-.598.3-1.197.699-1.695l-3.99-1.596 1.895-1.297 3.591 1.496.997-.698zm4.389 6.284-1.596-2.294-1.297.898c-.499.299-.798.698-.898 1.097s-.099.698.2 1.097.598.599.997.599.798-.2 1.297-.499zm-15.064 3.092c-.3-.499-.4-1.098-.3-1.596.1-.499.3-1.097.698-1.496a3.96 3.96 0 0 1 1.596-1.197c.698-.3 1.397-.499 1.995-.499s1.197.1 1.696.399.898.698 1.297 1.297l-1.796.897c-.199-.498-.598-.698-.997-.897-.4-.1-.898-.1-1.497.199-.299.1-.498.299-.698.499-.2.199-.299.399-.399.598-.1.2 0 .499.1.698.1.3.3.399.598.499.3.1.599 0 .998-.1l1.496-.399c.299-.099.698-.199.998-.199.299 0 .598 0 .897.1.3.099.599.199.798.399.2.199.499.498.599.798.199.498.299.997.199 1.496s-.299.997-.698 1.496c-.399.399-.798.798-1.496 1.097-.599.3-1.197.499-1.895.499-.599 0-1.197-.1-1.696-.399a3.03 3.03 0 0 1-1.197-1.297l1.795-.897c.2.299.4.498.599.698.2.199.499.199.798.199s.598-.099.898-.199c.299-.1.498-.299.698-.499.199-.199.199-.399.299-.598 0-.2 0-.399-.1-.599a.78.78 0 0 0-.399-.399c-.199-.1-.399-.1-.598-.1-.2 0-.399 0-.599.1l-1.596.399c-.798.2-1.496.2-2.094.1-.3-.1-.698-.499-.998-1.097m-9.079-.399a4.14 4.14 0 0 1 1.896-.099 4.9 4.9 0 0 1 1.695.598c.5.299.998.698 1.297 1.297.4.498.599 1.097.798 1.795s.2 1.297.1 1.995c-.1.599-.3 1.197-.599 1.696s-.698.997-1.197 1.296c-.498.399-1.097.599-1.695.798-.698.2-1.297.2-1.895.1s-1.197-.299-1.696-.598c-.499-.3-.998-.699-1.397-1.297-.399-.499-.598-1.097-.798-1.795-.199-.699-.199-1.297-.1-1.995.1-.699.3-1.197.6-1.696a5.2 5.2 0 0 1 1.196-1.397c.599-.299 1.197-.598 1.796-.698m.5 1.696a3.7 3.7 0 0 0-1.098.499c-.3.199-.499.498-.698.897-.2.3-.3.699-.3 1.098s0 .798.1 1.197.3.798.5 1.097c.199.299.498.598.797.798.3.199.599.399.998.399q.597.15 1.197 0a3.7 3.7 0 0 0 1.097-.499c.299-.199.498-.499.698-.798s.3-.698.3-1.097 0-.798-.1-1.197-.3-.798-.5-1.097c-.199-.3-.498-.599-.797-.798s-.599-.399-.998-.399c-.399-.2-.798-.2-1.197-.1m-8.08-.2 1.995-.2.698 9.277-5.984.499-.1-1.696 3.99-.299-.2-2.295-3.391.3-.1-1.696 3.391-.299zm-14.364 1.297.2-1.696 6.184.599-.998 9.276-6.184-.598.2-1.696 4.19.399.199-1.995-3.691-.399.2-1.696 3.79.399.2-2.194zm-2.69-2.395 2.194.599-3.99 3.89 1.397 5.087-2.195-.598-.898-3.691-2.693 2.693-2.094-.598 3.79-3.791-1.596-5.286 2.294.598 1.097 3.89zm-11.474-.598 1.296.599 1.197-2.793 1.796.798-3.691 8.578-3.192-1.396c-.698-.3-1.297-.699-1.696-1.097-.399-.399-.698-.898-.798-1.497q-.15-.748.3-1.795c.299-.599.598-1.097 1.097-1.397.499-.299.997-.498 1.596-.498.798.099 1.396.199 2.094.498m-1.796 4.29 1.297.598 1.197-2.693-1.297-.599c-.499-.199-.997-.299-1.297-.099-.399.099-.698.399-.897.798q-.3.599 0 1.197c.2.299.498.498.997.798m-7.48-10.972.898-1.496 5.287 3.291-4.888 7.88-5.287-3.291.898-1.497 3.591 2.195.997-1.696-3.191-1.995.897-1.396 3.192 1.995 1.197-1.896zm-1.593-3.492 1.497 1.297-5.985 7.082-2.793-2.394c-.898-.798-1.396-1.596-1.596-2.394s.1-1.596.698-2.294q.6-.748 1.496-.898c.599-.1 1.197-.1 1.896.2l.498-4.289 1.796 1.496-.499 3.89.898.798zm-4.987 5.885 1.795-2.094-1.196-.998c-.5-.399-.898-.598-1.297-.598-.4 0-.698.099-.998.498-.299.399-.399.699-.299 1.098s.4.798.798 1.097zm-1.399-11.869 1.396 1.396-6.783 6.384-1.396-1.397zm-6.384-5.187 1.396-.998 3.79 4.987-7.38 5.586-3.691-4.887 1.396-.998 2.494 3.392 1.596-1.197-2.294-2.993 1.396-.997 2.294 2.992 1.796-1.396zm-2.194-7.481-3.69 6.882 5.685-3.092.898 1.596-8.18 4.389-.997-1.895 3.49-6.484-5.385 2.893-.898-1.596 8.18-4.39zm-2.697-7.082c.2.598.3 1.197.2 1.895s-.2 1.197-.499 1.695a5.3 5.3 0 0 1-1.197 1.397 5.5 5.5 0 0 1-1.696.898c-.698.2-1.296.299-1.895.2-.598 0-1.197-.2-1.795-.5-.599-.299-.998-.598-1.397-1.097s-.698-.997-.898-1.596c-.299-.798-.299-1.496-.199-2.294.1-.698.399-1.397.798-1.995s.997-1.097 1.795-1.396l.599 1.995c-.4.199-.698.498-.998.797-.2.3-.399.699-.498 1.098-.1.399 0 .798.1 1.197s.299.698.598.997q.3.45.898.599c.299.1.698.2 1.097.2s.798-.1 1.197-.2.798-.3 1.097-.599c.3-.2.598-.499.798-.798s.3-.598.399-.997c0-.4 0-.698-.1-1.097-.1-.4-.399-.799-.698-1.098-.3-.299-.599-.498-.997-.598-.4-.1-.798-.1-1.297-.1l-.599-1.995c.798-.1 1.596-.1 2.294.1.699.2 1.297.598 1.896 1.097.399.698.698 1.397.997 2.195m-4.384-11.471 1.695-.3.998 6.185-9.277 1.496-.997-6.084 1.696-.3.598 4.19 1.895-.3-.598-3.79 1.696-.3.598 3.791 2.194-.299zm-1.2-7.68v3.99h-1.596v-3.99z"/></svg>