<svg width="53" height="59" viewBox="0 0 53 59" fill="none" xmlns="http://www.w3.org/2000/svg">
<path d="M45.983 22.0524C45.7568 25.7755 44.9682 29.383 43.6875 32.7743C43.294 34.0211 42.769 35.2096 42.1282 36.3233C39.0303 42.4708 34.2275 47.6995 28.191 51.308L28.1814 51.6253C28.246 53.8796 28.247 56.3069 28.1919 58.9288C42.7348 51.919 52.7707 37.0397 52.7707 19.8148C52.7707 19.5698 52.7688 19.325 52.7646 19.0812C50.2845 20.1076 48.029 21.0827 45.983 22.0524ZM0.221899 19.0883C0.21774 19.3298 0.21582 19.572 0.21582 19.8148C0.21582 37.0329 10.2441 51.9075 24.7776 58.9204C24.7226 56.305 24.7236 53.8831 24.7882 51.633L24.7783 51.2974C18.7536 47.6911 13.9595 42.4702 10.8641 36.3332C10.2179 35.2122 9.689 34.015 9.29389 32.7586C8.01736 29.3747 7.23129 25.7752 7.00445 22.0608C4.95817 21.0904 2.70201 20.1149 0.221899 19.0883ZM17.487 7.02204C11.4029 8.59674 5.9458 11.7298 1.56721 15.9702C4.02909 16.9898 6.28493 17.9656 8.34945 18.9417C9.50984 18.0149 10.7339 17.1828 12.0104 16.4498C13.6382 13.2249 15.6186 9.9251 17.487 7.02204ZM40.9758 16.4495C42.2501 17.1812 43.4719 18.0117 44.6307 18.9366C46.6955 17.9608 48.9523 16.985 51.4145 15.9654C47.0366 11.7276 41.5814 8.59642 35.4992 7.02204C37.3673 9.9251 39.3476 13.2246 40.9758 16.4495ZM26.4931 12.5994C28.1222 12.5994 29.7331 12.7344 31.3122 12.9974C29.6428 10.3333 27.9302 7.82315 26.56 5.8802L26.4931 5.87988L26.4262 5.8802C25.056 7.82347 23.3434 10.3333 21.674 12.9974C23.2528 12.7344 24.864 12.5994 26.4931 12.5994Z" fill="#002C8F"/>
<path fill-rule="evenodd" clip-rule="evenodd" d="M26.492 41.9648C34.5664 41.9648 41.1119 35.4193 41.1119 27.3449C41.1119 19.2705 26.492 0 26.492 0C26.492 0 11.8721 19.2705 11.8721 27.3449C11.8721 35.419 18.4176 41.9648 26.492 41.9648Z" fill="#00D1F9"/>
</svg>
