<svg width="32" height="32" viewBox="0 0 32 32" fill="none" xmlns="http://www.w3.org/2000/svg">
<path d="M27.8671 11.9751C27.7293 13.9968 27.2492 15.9558 26.4694 17.7974C26.2298 18.4744 25.9101 19.1198 25.5199 19.7246C23.6336 23.0629 20.7093 25.9022 17.0337 27.8617L17.0279 28.034C17.0672 29.2582 17.0678 30.5763 17.0343 32C25.8892 28.1935 32 20.1136 32 10.76C32 10.6269 31.9988 10.494 31.9963 10.3616C30.4862 10.9189 29.1128 11.4485 27.8671 11.9751ZM0.00370125 10.3654C0.00116881 10.4966 0 10.6281 0 10.76C0 20.1099 6.10608 28.1873 14.9554 31.9955C14.9219 30.5752 14.9225 29.2601 14.9618 28.0382L14.9558 27.856C11.2874 25.8977 8.36832 23.0625 6.48361 19.73C6.09011 19.1212 5.7681 18.4711 5.52752 17.7889C4.75026 15.9513 4.27163 13.9966 4.13351 11.9796C2.88756 11.4526 1.51381 10.9229 0.00370125 10.3654ZM10.5162 3.8131C6.81166 4.66821 3.48891 6.36957 0.822846 8.67223C2.32185 9.22591 3.6954 9.7558 4.95246 10.2859C5.65901 9.78255 6.40432 9.33067 7.18159 8.93265C8.17274 7.18143 9.37857 5.38955 10.5162 3.8131ZM24.8182 8.93248C25.5941 9.32981 26.3381 9.78082 27.0436 10.2831C28.3009 9.75319 29.675 9.22331 31.1742 8.66962C28.5086 6.36836 25.187 4.66804 21.4836 3.8131C22.621 5.38955 23.8269 7.18125 24.8182 8.93248ZM15.9999 6.84178C16.9918 6.84178 17.9727 6.91509 18.9342 7.0579C17.9177 5.61123 16.875 4.24812 16.0406 3.19304L15.9999 3.19287L15.9592 3.19304C15.1249 4.2483 14.0821 5.61123 13.0656 7.0579C14.0269 6.91509 15.008 6.84178 15.9999 6.84178Z" fill="#002C8F"/>
<path fill-rule="evenodd" clip-rule="evenodd" d="M15.9995 22.7882C20.916 22.7882 24.9014 19.2338 24.9014 14.8491C24.9014 10.4644 15.9995 0 15.9995 0C15.9995 0 7.09766 10.4644 7.09766 14.8491C7.09766 19.2336 11.0831 22.7882 15.9995 22.7882Z" fill="#00D1F9"/>
</svg>
