<svg width="25" height="25" viewBox="0 0 25 25" fill="none" xmlns="http://www.w3.org/2000/svg">
<path d="M13.3053 22.4716C14.157 23.02 15.1707 23.2604 16.1779 23.1528C17.1851 23.0452 18.1252 22.5961 18.8418 21.8802L19.466 21.2559C19.7429 20.976 19.8983 20.5982 19.8983 20.2045C19.8983 19.8108 19.7429 19.4329 19.466 19.1531L16.8375 16.5409C16.5604 16.265 16.1853 16.1101 15.7943 16.1101C15.4032 16.1101 15.0281 16.265 14.751 16.5409V16.5409C14.4712 16.8178 14.0933 16.9731 13.6996 16.9731C13.3059 16.9731 12.9281 16.8178 12.6482 16.5409L8.4589 12.3516C8.18201 12.0717 8.02669 11.6939 8.02669 11.3002C8.02669 10.9065 8.18201 10.5287 8.4589 10.2488V10.2488C8.73479 9.97168 8.88968 9.59658 8.88968 9.20556C8.88968 8.81454 8.73479 8.43944 8.4589 8.16234L5.9289 5.53377C5.64901 5.25687 5.27119 5.10156 4.87748 5.10156C4.48376 5.10156 4.10594 5.25687 3.82605 5.53377L3.20176 6.15806C2.473 6.86455 2.00857 7.7996 1.88599 8.80717C1.76341 9.81474 1.99008 10.8339 2.52819 11.6945C5.39289 15.9475 9.05233 19.6069 13.3053 22.4716V22.4716Z" stroke="#00D1F9" stroke-width="2.5" stroke-linecap="round" stroke-linejoin="round"/>
<path d="M12.5 1.82227C13.9023 1.82227 15.2909 2.09848 16.5865 2.63512C17.8821 3.17177 19.0593 3.95835 20.0509 4.94995C21.0425 5.94154 21.8291 7.11874 22.3657 8.41432C22.9024 9.70991 23.1786 11.0985 23.1786 12.5008" stroke="#00D1F9" stroke-width="2.5" stroke-linecap="round" stroke-linejoin="round"/>
<path d="M12.5 5.92773C14.2429 5.92773 15.9143 6.62008 17.1467 7.85246C18.3791 9.08484 19.0714 10.7563 19.0714 12.4992" stroke="#00D1F9" stroke-width="2.5" stroke-linecap="round" stroke-linejoin="round"/>
</svg>
