<svg width="202" height="50" viewBox="0 0 202 50" fill="none" xmlns="http://www.w3.org/2000/svg">
<path d="M38.8328 18.7105C38.6409 21.8694 37.9717 24.9304 36.8851 27.8078C36.5512 28.8657 36.1057 29.8741 35.562 30.8191C32.9335 36.0351 28.8584 40.4716 23.7365 43.5333L23.7284 43.8026C23.7832 45.7153 23.784 47.7748 23.7373 49.9994C36.0767 44.0518 44.592 31.4269 44.592 16.8119C44.592 16.6039 44.5904 16.3963 44.5869 16.1894C42.4825 17.0603 40.5688 17.8877 38.8328 18.7105ZM0.00515769 16.1954C0.00162874 16.4003 0 16.6058 0 16.8119C0 31.4212 8.50883 44.042 20.8403 49.9924C20.7936 47.7732 20.7944 45.7183 20.8493 43.8091L20.8409 43.5244C15.7291 40.4645 11.6613 36.0346 9.03491 30.8275C8.48657 29.8763 8.03785 28.8605 7.7026 27.7945C6.61949 24.9233 5.95252 21.8691 5.76005 18.7175C4.02381 17.8942 2.10949 17.0665 0.00515769 16.1954ZM14.6544 5.95738C9.49205 7.2935 4.8618 9.95188 1.14664 13.5498C3.2355 14.4149 5.14955 15.2429 6.90126 16.0711C7.88584 15.2847 8.92443 14.5786 10.0075 13.9567C11.3887 11.2204 13.069 8.42059 14.6544 5.95738ZM34.5842 13.9564C35.6654 14.5772 36.7021 15.2819 37.6853 16.0667C39.4373 15.2388 41.3522 14.4108 43.4413 13.5457C39.7267 9.94998 35.0981 7.29323 29.9374 5.95738C31.5224 8.42059 33.2028 11.2201 34.5842 13.9564ZM22.2959 10.6897C23.6781 10.6897 25.0449 10.8043 26.3848 11.0274C24.9684 8.76697 23.5153 6.63711 22.3526 4.98855L22.2959 4.98828L22.2391 4.98855C21.0765 6.63738 19.6234 8.76697 18.2069 11.0274C19.5466 10.8043 20.9136 10.6897 22.2959 10.6897Z" fill="white"/>
<path fill-rule="evenodd" clip-rule="evenodd" d="M22.2954 35.6065C29.1465 35.6065 34.7002 30.0528 34.7002 23.2017C34.7002 16.3507 22.2954 0 22.2954 0C22.2954 0 9.89062 16.3507 9.89062 23.2017C9.89062 30.0525 15.4444 35.6065 22.2954 35.6065Z" fill="#00D1F9"/>
<path d="M57.5998 40V35.032L73.0798 18.76H58.2478V13.756H80.8558V18.76L65.3398 35.032H81.2518V40H57.5998ZM91.6955 40.36C86.0075 40.36 82.1915 36.472 82.1915 30.352C82.1915 24.232 86.0075 20.38 91.6955 20.38C95.4035 20.38 97.8155 21.748 98.9315 23.728H99.1835L99.3635 20.704H105.123V40H99.0395V36.904H98.7875C97.5995 39.028 94.8635 40.36 91.6955 40.36ZM93.5675 35.752C96.9875 35.752 99.0035 33.556 99.0035 30.784V29.848C99.0035 27.148 96.9875 24.988 93.5675 24.988C90.4355 24.988 88.3115 26.896 88.3115 30.352C88.3115 33.772 90.3995 35.752 93.5675 35.752ZM107.964 18.22V13.756H114.012V18.22H107.964ZM107.964 40V20.704H114.012V40H107.964ZM120.728 40L115.184 20.704H120.944L124.76 34.852H125.012L128.54 20.704H134.516L137.972 34.96H138.116L142.04 20.704H147.548L141.968 40H134.696L131.348 27.436H131.168L127.892 40H120.728ZM156.45 40C153.246 40 151.194 38.488 151.194 35.212V25.276H147.594V20.704H151.194V15.808L157.17 14.656V20.704H161.958V25.276H157.17V33.304C157.17 34.492 157.746 34.852 158.934 34.852H161.958V40H156.45ZM174.329 40.324C167.273 40.324 162.737 36.652 162.737 30.46C162.737 24.124 167.345 20.344 174.257 20.344C181.601 20.344 185.849 24.556 185.381 31.648H168.821C168.893 34.528 171.017 36.256 174.473 36.256C177.101 36.256 179.117 35.284 179.621 33.844H185.345C184.805 37.732 180.269 40.324 174.329 40.324ZM174.221 24.484C171.197 24.484 169.181 25.888 168.713 28.336H179.369C179.153 25.96 177.389 24.484 174.221 24.484ZM187.455 40V20.704H192.927L193.143 23.764H193.395C194.187 21.712 196.095 20.416 198.651 20.416C199.299 20.416 199.803 20.452 200.235 20.524V25.96C199.695 25.888 199.047 25.816 198.507 25.816C195.411 25.816 193.575 27.292 193.503 30.82V40H187.455Z" fill="white"/>
</svg>
