<svg width="30" height="50" viewBox="0 0 30 50" fill="none" xmlns="http://www.w3.org/2000/svg">
<path d="M28.4266 25.098H22.1357L25.5399 20.3255C25.9178 19.7956 25.8042 21.1269 25.8042 1.47059C25.8042 0.658431 25.0997 0 24.2308 0H5.76923C4.90028 0 4.1958 0.658431 4.1958 1.47059V19.5098C4.1958 20.1166 4.13769 19.8735 7.8643 25.098H1.57343C0.704476 25.098 0 25.7565 0 26.5686V48.5294C0 49.3416 0.704476 50 1.57343 50H28.4266C29.2955 50 30 49.3416 30 48.5294V26.5686C30 25.7565 29.2955 25.098 28.4266 25.098ZM7.34266 2.94118H22.6573V6.27451H7.34266V2.94118ZM7.34266 9.21569H22.6573V12.549H7.34266V9.21569ZM7.34266 19.0645V15.4902H22.6573V19.0645L18.3538 25.098H11.6463L7.34266 19.0645ZM20.1399 47.0588H9.86014V40.5882H20.1399V47.0588ZM26.8531 47.0588H23.2867V39.1176C23.2867 38.3055 22.5822 37.6471 21.7133 37.6471H8.28671C7.41776 37.6471 6.71329 38.3055 6.71329 39.1176V47.0588H3.14685V28.0392H26.8531V47.0588Z" fill="white"/>
<path d="M11.643 31.3726H8.28632C7.41737 31.3726 6.71289 32.031 6.71289 32.8431C6.71289 33.6553 7.41737 34.3137 8.28632 34.3137H11.643C12.5119 34.3137 13.2164 33.6553 13.2164 32.8431C13.2164 32.031 12.5119 31.3726 11.643 31.3726Z" fill="white"/>
<path d="M16.7852 32.8431C16.7852 33.6553 17.4896 34.3137 18.3586 34.3137H21.7152C22.5842 34.3137 23.2887 33.6553 23.2887 32.8431C23.2887 32.031 22.5842 31.3726 21.7152 31.3726H18.3586C17.4896 31.3726 16.7852 32.031 16.7852 32.8431Z" fill="white"/>
</svg>
