<svg width="37" height="40" viewBox="0 0 37 40" fill="none" xmlns="http://www.w3.org/2000/svg">
<path d="M32.7273 7.36545V1.81818C32.7273 1.33597 32.5357 0.873509 32.1948 0.532533C31.8538 0.191558 31.3913 0 30.9091 0H25.4546V3.63636H29.0909V9.12727C29.0909 9.12727 32.7273 11.1709 32.7273 15.4545V36.3636H25.4546V40H34.5455C35.0277 40 35.4901 39.8084 35.8311 39.4675C36.1721 39.1265 36.3636 38.664 36.3636 38.1818V15.4545C36.3658 13.9255 36.0427 12.4134 35.4157 11.0188C34.7888 9.62416 33.8723 8.37882 32.7273 7.36545ZM18.1818 7.36545V1.81818C18.1818 1.33597 17.9903 0.873509 17.6493 0.532533C17.3083 0.191558 16.8459 0 16.3636 0H5.45456C4.97234 0 4.50988 0.191558 4.16891 0.532533C3.82793 0.873509 3.63637 1.33597 3.63637 1.81818V7.36545C2.49131 8.37882 1.5749 9.62416 0.947952 11.0188C0.321007 12.4134 -0.00212305 13.9255 1.04969e-05 15.4545V38.1818C1.04969e-05 38.664 0.191569 39.1265 0.532544 39.4675C0.873519 39.8084 1.33598 40 1.81819 40H20C20.4822 40 20.9447 39.8084 21.2857 39.4675C21.6266 39.1265 21.8182 38.664 21.8182 38.1818V15.4545C21.8203 13.9255 21.4972 12.4134 20.8703 11.0188C20.2433 9.62416 19.3269 8.37882 18.1818 7.36545ZM18.1818 36.3636H3.63637V15.4545C3.63637 11.1709 7.27274 9.12727 7.27274 9.12727V3.63636H14.5455V9.12727C14.5455 9.12727 18.1818 11.1709 18.1818 15.4545V36.3636Z" fill="white"/>
</svg>
