<svg width="54" height="40" viewBox="0 0 54 40" fill="none" xmlns="http://www.w3.org/2000/svg">
<path d="M39.5756 25.4541C35.5652 25.4541 32.3027 28.7166 32.3027 32.7269C32.3027 36.7373 35.5652 39.9998 39.5756 39.9998C43.5866 39.9998 46.8484 36.7373 46.8484 32.7269C46.8484 28.7166 43.5859 25.4541 39.5756 25.4541ZM39.5756 36.3634C37.5701 36.3634 35.9392 34.7324 35.9392 32.7269C35.9392 30.7215 37.5701 29.0905 39.5756 29.0905C41.581 29.0905 43.212 30.7215 43.212 32.7269C43.212 34.7325 41.581 36.3634 39.5756 36.3634Z" fill="white"/>
<path d="M14.7279 25.4541C10.7176 25.4541 7.45508 28.7166 7.45508 32.7269C7.45508 36.7373 10.7176 39.9998 14.7279 39.9998C18.7383 39.9998 22.0008 36.7373 22.0008 32.7269C22.0008 28.7166 18.7383 25.4541 14.7279 25.4541ZM14.7279 36.3634C12.7225 36.3634 11.0915 34.7324 11.0915 32.7269C11.0915 30.7215 12.7225 29.0905 14.7279 29.0905C16.7328 29.0905 18.3643 30.7215 18.3643 32.7269C18.3643 34.7325 16.7334 36.3634 14.7279 36.3634Z" fill="white"/>
<path d="M44.4742 4.63847C44.1651 4.02453 43.5366 3.63721 42.8493 3.63721H33.2734V7.27363H41.7281L46.679 17.121L49.9288 15.487L44.4742 4.63847Z" fill="white"/>
<path d="M34.123 30.9707H20.3652V34.6071H34.123V30.9707Z" fill="white"/>
<path d="M9.27353 30.9707H2.9705C1.9662 30.9707 1.15234 31.7847 1.15234 32.7889C1.15234 33.7932 1.96631 34.607 2.9705 34.607H9.27364C10.2779 34.607 11.0918 33.793 11.0918 32.7889C11.0918 31.7846 10.2778 30.9707 9.27353 30.9707Z" fill="white"/>
<path d="M53.3166 19.8548L49.7403 15.2487C49.3967 14.805 48.8664 14.5456 48.3045 14.5456H35.0921V1.81815C35.0921 0.813853 34.2782 0 33.274 0H2.9705C1.9662 0 1.15234 0.813966 1.15234 1.81815C1.15234 2.82234 1.96631 3.63631 2.9705 3.63631H31.4557V16.3637C31.4557 17.368 32.2697 18.1819 33.2739 18.1819H47.4141L50.062 21.5928V30.9699H45.0316C44.0273 30.9699 43.2134 31.7839 43.2134 32.7881C43.2134 33.7924 44.0274 34.6063 45.0316 34.6063H51.8802C52.8845 34.6063 53.6983 33.7923 53.6984 32.7881V20.97C53.6984 20.5663 53.5639 20.1736 53.3166 19.8548Z" fill="white"/>
<path d="M13.1527 20.0615H4.78886C3.78456 20.0615 2.9707 20.8755 2.9707 21.8797C2.9707 22.884 3.78467 23.6978 4.78886 23.6978H13.1526C14.1569 23.6978 14.9707 22.8839 14.9707 21.8797C14.9708 20.8755 14.1569 20.0615 13.1527 20.0615Z" fill="white"/>
<path d="M17.3336 13.7573H1.81816C0.813967 13.7573 0 14.5713 0 15.5756C0 16.5799 0.813967 17.3937 1.81816 17.3937H17.3336C18.3379 17.3937 19.1517 16.5798 19.1517 15.5756C19.1517 14.5714 18.3379 13.7573 17.3336 13.7573Z" fill="white"/>
<path d="M20.3043 7.45508H4.78886C3.78456 7.45508 2.9707 8.26904 2.9707 9.27323C2.9707 10.2775 3.78467 11.0914 4.78886 11.0914H20.3043C21.3086 11.0914 22.1224 10.2774 22.1224 9.27323C22.1225 8.26904 21.3086 7.45508 20.3043 7.45508Z" fill="white"/>
</svg>
