<svg width="54" height="41" viewBox="0 0 54 41" fill="none" xmlns="http://www.w3.org/2000/svg">
<path d="M9.65555 1.2654C6.42118 2.24977 3.51493 4.73415 1.8743 7.87477C0.608677 10.3123 0.655552 15.9373 2.01493 18.4685C3.88993 22.031 9.60868 25.8748 11.7649 25.031C13.0306 24.5623 12.3743 23.7654 10.0306 22.8748C6.70243 21.6091 5.15555 20.2498 3.7493 17.4841C1.26493 12.3748 3.1868 6.65602 8.20243 4.03102C11.5306 2.29665 14.2493 2.29665 17.6712 3.98415C20.9524 5.67165 22.7337 8.2029 23.0618 11.6716C23.5306 16.5935 19.6399 28.3123 14.7649 36.3279C12.9368 39.3748 12.5149 40.4529 12.9368 40.8748C14.5774 42.4685 21.2337 29.2029 23.9993 18.8904C25.3587 13.7341 25.3587 10.6404 23.9993 7.8279C21.5618 2.67165 14.9524 -0.328354 9.65555 1.2654Z" fill="white"/>
<path d="M37.7806 1.26537C34.4524 2.3435 31.6399 4.73412 29.9993 7.87475C28.7337 10.3122 28.7806 15.9372 30.1399 18.4685C32.0149 22.031 37.7337 25.8747 39.8899 25.031C41.1556 24.5622 40.4993 23.7654 38.1556 22.8747C34.8274 21.6091 33.2806 20.2497 31.8743 17.4841C27.3743 8.20287 37.6868 -0.984627 46.5462 4.406C49.8274 6.42162 51.5618 9.8435 51.1868 13.781C50.7181 19.4529 46.6868 29.9997 42.1399 37.5466C40.8743 39.656 40.5931 40.406 41.0618 40.8279C41.8587 41.6247 43.3587 39.6091 46.4056 33.656C50.2962 26.0622 53.2493 16.8747 53.2493 12.4685C53.2024 8.57787 50.2962 4.12475 46.4524 2.156C44.4368 1.12475 39.7024 0.609123 37.7806 1.26537Z" fill="white"/>
</svg>
