<svg width="17" height="17" viewBox="0 0 17 17" fill="none" xmlns="http://www.w3.org/2000/svg">
<path d="M0 0.6875C0 0.538316 0.0592632 0.395242 0.164752 0.289752C0.270242 0.184263 0.413316 0.125 0.5625 0.125H2.25C2.37547 0.125035 2.49733 0.16702 2.5962 0.244278C2.69506 0.321536 2.76526 0.429632 2.79562 0.551375L3.25125 2.375H16.3125C16.3951 2.37508 16.4767 2.39334 16.5514 2.42849C16.6261 2.46365 16.6922 2.51483 16.7449 2.5784C16.7977 2.64198 16.8357 2.71638 16.8565 2.79633C16.8772 2.87628 16.8801 2.95982 16.8649 3.041L15.1774 12.041C15.1532 12.1699 15.0848 12.2863 14.984 12.3701C14.8831 12.4539 14.7561 12.4999 14.625 12.5H4.5C4.36886 12.4999 4.24189 12.4539 4.14102 12.3701C4.04016 12.2863 3.97175 12.1699 3.94762 12.041L2.26125 3.05788L1.81125 1.25H0.5625C0.413316 1.25 0.270242 1.19074 0.164752 1.08525C0.0592632 0.979758 0 0.836684 0 0.6875ZM3.48975 3.5L4.96687 11.375H14.1581L15.6352 3.5H3.48975ZM5.625 12.5C5.02826 12.5 4.45597 12.7371 4.03401 13.159C3.61205 13.581 3.375 14.1533 3.375 14.75C3.375 15.3467 3.61205 15.919 4.03401 16.341C4.45597 16.7629 5.02826 17 5.625 17C6.22174 17 6.79403 16.7629 7.21599 16.341C7.63795 15.919 7.875 15.3467 7.875 14.75C7.875 14.1533 7.63795 13.581 7.21599 13.159C6.79403 12.7371 6.22174 12.5 5.625 12.5ZM13.5 12.5C12.9033 12.5 12.331 12.7371 11.909 13.159C11.4871 13.581 11.25 14.1533 11.25 14.75C11.25 15.3467 11.4871 15.919 11.909 16.341C12.331 16.7629 12.9033 17 13.5 17C14.0967 17 14.669 16.7629 15.091 16.341C15.5129 15.919 15.75 15.3467 15.75 14.75C15.75 14.1533 15.5129 13.581 15.091 13.159C14.669 12.7371 14.0967 12.5 13.5 12.5ZM5.625 13.625C5.92337 13.625 6.20952 13.7435 6.42049 13.9545C6.63147 14.1655 6.75 14.4516 6.75 14.75C6.75 15.0484 6.63147 15.3345 6.42049 15.5455C6.20952 15.7565 5.92337 15.875 5.625 15.875C5.32663 15.875 5.04048 15.7565 4.8295 15.5455C4.61853 15.3345 4.5 15.0484 4.5 14.75C4.5 14.4516 4.61853 14.1655 4.8295 13.9545C5.04048 13.7435 5.32663 13.625 5.625 13.625ZM13.5 13.625C13.7984 13.625 14.0845 13.7435 14.2955 13.9545C14.5065 14.1655 14.625 14.4516 14.625 14.75C14.625 15.0484 14.5065 15.3345 14.2955 15.5455C14.0845 15.7565 13.7984 15.875 13.5 15.875C13.2016 15.875 12.9155 15.7565 12.7045 15.5455C12.4935 15.3345 12.375 15.0484 12.375 14.75C12.375 14.4516 12.4935 14.1655 12.7045 13.9545C12.9155 13.7435 13.2016 13.625 13.5 13.625Z" fill="#002C8F"/>
</svg>
